<?xml version="1.0" standalone="no"?><!-- Generator: Gravit.io --><svg xmlns="http://www.w3.org/2000/svg" xmlns:xlink="http://www.w3.org/1999/xlink" style="isolation:isolate" viewBox="167.65 56.65 30.7 30.7" width="30.7" height="30.7"><g id="Group"><path d=" M 183.01 58.68 Q 184.42 52.47 187.75 69.26 Q 193.08 69.56 196.84 69.44 Q 201.07 69.31 189.88 76.19 Q 194.96 88.27 191.56 85.75 Q 187.49 82.73 183.01 80.15 Q 172.67 89.92 174.15 85.75 Q 176.46 79.23 177.51 75.24 Q 172.98 71.31 169.19 69.44 Q 164.31 67.04 179.5 68.49 Q 181.45 65.59 183.01 58.68 Z " fill-rule="evenodd" fill="rgb(194,229,238)" vector-effect="non-scaling-stroke" stroke-width="0.7" stroke="rgb(33,158,188)" stroke-linejoin="round" stroke-linecap="butt" stroke-miterlimit="1.414"/><path d=" M 179.79 76.48 C 179.79 75.82 180.32 75.28 180.98 75.28 C 181.64 75.28 182.17 75.82 182.17 76.48 C 182.17 77.14 181.64 77.67 180.98 77.67 C 180.32 77.67 179.79 77.14 179.79 76.48 Z " fill="rgb(127,167,198)"/><path d=" M 182.17 74.9 C 182.17 74.45 182.54 74.09 182.98 74.09 C 183.43 74.09 183.8 74.45 183.8 74.9 C 183.8 75.35 183.43 75.72 182.98 75.72 C 182.54 75.72 182.17 75.35 182.17 74.9 Z " fill="rgb(127,167,198)"/><path d=" M 184.83 75.72 C 184.83 75.06 185.37 74.52 186.03 74.52 C 186.68 74.52 187.22 75.06 187.22 75.72 C 187.22 76.38 186.68 76.91 186.03 76.91 C 185.37 76.91 184.83 76.38 184.83 75.72 Z " fill="rgb(127,167,198)"/><path d=" M 179.45 71.57 C 179.45 70.72 180.14 70.04 180.98 70.04 C 181.82 70.04 182.51 70.72 182.51 71.57 C 182.51 72.42 181.82 73.1 180.98 73.1 C 180.14 73.1 179.45 72.42 179.45 71.57 Z " fill="rgb(127,167,198)"/><path d=" M 184.25 70.24 C 184.25 69.5 184.84 68.9 185.58 68.9 C 186.31 68.9 186.91 69.5 186.91 70.24 C 186.91 70.97 186.31 71.57 185.58 71.57 C 184.84 71.57 184.25 70.97 184.25 70.24 Z " fill="rgb(127,167,198)"/></g></svg>